<?xml version="1.0" standalone="no"?>
<!DOCTYPE svg PUBLIC "-//W3C//DTD SVG 20010904//EN"
 "http://www.w3.org/TR/2001/REC-SVG-20010904/DTD/svg10.dtd">
<svg version="1.0" xmlns="http://www.w3.org/2000/svg"
 width="700.000000pt" height="700.000000pt" viewBox="0 0 700.000000 700.000000"
 preserveAspectRatio="xMidYMid meet">
<metadata>
Created by potrace 1.11, written by Peter Selinger 2001-2013
</metadata>
<g transform="translate(0.000000,700.000000) scale(0.100000,-0.100000)"
fill="#000000" stroke="none">
<path d="M2775 6990 c-44 -14 -102 -66 -127 -113 -21 -40 -22 -54 -22 -312 0
-257 1 -272 22 -312 45 -86 110 -118 267 -128 412 -27 838 -144 1240 -340 148
-72 321 -169 354 -200 10 -8 21 -15 24 -15 4 0 31 -16 60 -36 681 -475 1176
-1158 1395 -1929 46 -161 61 -223 76 -305 5 -25 10 -52 11 -60 2 -8 8 -51 15
-95 6 -44 13 -91 15 -105 2 -14 7 -61 10 -105 3 -44 8 -98 11 -120 7 -59 52
-125 108 -159 l48 -30 278 0 278 0 48 30 c30 18 60 48 79 78 27 45 30 57 29
130 0 72 -9 194 -18 266 -2 14 -7 52 -11 85 -35 301 -153 747 -272 1030 -18
44 -33 83 -33 88 0 18 -172 360 -240 477 -294 506 -693 959 -1148 1303 -96 73
-365 257 -376 257 -3 0 -24 13 -48 29 -72 48 -364 196 -518 262 -227 97 -600
213 -815 255 -22 4 -44 8 -50 10 -5 1 -30 5 -55 9 -25 3 -63 10 -85 15 -22 4
-67 11 -100 14 -33 4 -71 8 -85 11 -105 18 -326 27 -365 15z"/>
<path d="M2777 5675 c-58 -20 -107 -63 -130 -114 -20 -43 -21 -64 -21 -316 0
-269 0 -270 24 -315 14 -24 44 -58 67 -76 44 -33 59 -37 243 -58 194 -22 453
-106 666 -215 223 -115 393 -241 565 -418 351 -361 555 -798 615 -1315 12
-101 57 -171 134 -205 47 -21 526 -26 593 -6 48 14 108 66 133 116 22 42 22
194 -1 301 -2 12 -6 39 -9 61 -11 90 -96 440 -114 470 -4 6 -7 15 -8 20 -5 34
-86 230 -140 343 -89 185 -264 470 -343 559 -6 6 -44 51 -84 100 -206 246
-456 459 -762 650 -211 132 -561 279 -810 342 -273 68 -544 102 -618 76z"/>
<path d="M426 4220 c-60 -30 -72 -45 -130 -159 -112 -222 -214 -525 -251 -751
-3 -19 -7 -46 -10 -60 -6 -34 -15 -103 -25 -197 -8 -82 -5 -473 4 -533 3 -19
8 -55 11 -80 13 -101 25 -169 45 -255 6 -27 13 -57 15 -65 28 -138 137 -424
224 -593 279 -538 718 -970 1253 -1234 225 -111 503 -205 698 -237 19 -3 46
-8 60 -11 200 -43 680 -54 850 -20 14 3 45 8 70 11 77 10 270 54 386 89 201
60 512 198 557 246 30 32 57 101 57 150 0 94 3 91 -850 943 -440 440 -800 804
-800 809 0 4 81 89 180 188 l181 181 42 -8 c69 -12 119 -11 171 2 208 54 340
232 332 447 -11 281 -277 471 -556 397 -89 -23 -181 -91 -240 -176 -59 -85
-89 -227 -65 -310 l12 -41 -187 -186 -187 -187 -804 805 c-614 615 -816 811
-853 830 -62 31 -134 33 -190 5z"/>
</g>
</svg>
