<?xml version="1.0" encoding="UTF-8" standalone="no"?>
<!-- Created with Inkscape (http://www.inkscape.org/) -->
<svg
   xmlns:svg="http://www.w3.org/2000/svg"
   xmlns="http://www.w3.org/2000/svg"
   version="1.0"
   width="200"
   height="75"
   id="svg2429">
  <defs
     id="defs2431" />
  <g
     transform="translate(-453.7104,-542.4467)"
     id="layer1">
    <g
       transform="translate(7.433545,5.854649)"
       id="g4267">
      <g
         id="g4285">
        <line
           x1="471.80249"
           y1="559.25061"
           x2="501.21667"
           y2="559.25061"
           style="font-style:normal;font-variant:normal;font-weight:normal;font-stretch:normal;letter-spacing:normal;word-spacing:normal;text-anchor:start;fill:none;fill-opacity:1;stroke:black;stroke-width:2.00384164;stroke-linecap:square;stroke-linejoin:miter;stroke-miterlimit:10.43299961;stroke-dasharray:none;stroke-dashoffset:0;stroke-opacity:1"
           id="line2069" />
        <line
           transform="matrix(1438.57,0,0,1438.57,-392.102,495.9343)"
           x1="0.67352706"
           y1="0.05433017"
           x2="0.70369059"
           y2="0.05433017"
           style="font-style:normal;font-variant:normal;font-weight:normal;font-stretch:normal;letter-spacing:normal;word-spacing:normal;text-anchor:start;fill:none;fill-opacity:1;stroke:black;stroke-width:0.00140057;stroke-linecap:square;stroke-linejoin:miter;stroke-miterlimit:10.43299961;stroke-dasharray:none;stroke-dashoffset:0;stroke-opacity:1"
           id="line2073" />
        <path
           d="M 0.62119374,0.033722662 C 0.63150617,0.033722662 0.64181861,0.033722662 0.65213104,0.033722662 C 0.65365881,0.033722662 0.65537755,0.033913633 0.65728726,0.034295575 C 0.65919697,0.034677517 0.66110668,0.035441401 0.66299903,0.036587227 C 0.66490874,0.037715692 0.66681845,0.039451792 0.66872816,0.041726083 C 0.67063787,0.044017735 0.67197467,0.04670869 0.67273855,0.049746865 C 0.67350243,0.052802401 0.67350243,0.055857937 0.67273855,0.058913473 C 0.67197467,0.061969009 0.67063787,0.064642603 0.66872816,0.066934255 C 0.66681845,0.069208546 0.66490874,0.070927285 0.66299903,0.072090472 C 0.66110668,0.073218937 0.65919697,0.073982821 0.65728726,0.074364763 C 0.65537755,0.074746705 0.65365881,0.074937676 0.65213104,0.074937676 C 0.65060328,0.074937676 0.64506512,0.074937676 0.63551657,0.074937676 C 0.62596802,0.074937676 0.62119374,0.074937676 0.62119374,0.074937676 C 0.62119374,0.074937676 0.62119374,0.06806272 0.62119374,0.054312808 L 0.62119374,0.033722662 z "
           transform="matrix(1438.57,0,0,1438.57,-392.102,495.9343)"
           style="font-style:normal;font-variant:normal;font-weight:normal;font-stretch:normal;letter-spacing:normal;word-spacing:normal;text-anchor:start;fill:white;fill-opacity:1;stroke:black;stroke-width:0.00278054;stroke-linecap:square;stroke-linejoin:miter;stroke-miterlimit:10.43000031;stroke-dasharray:none;stroke-dashoffset:0;stroke-opacity:1"
           id="path2089" />
        <line
           id="line4291"
           style="font-style:normal;font-variant:normal;font-weight:normal;font-stretch:normal;letter-spacing:normal;word-spacing:normal;text-anchor:start;fill:none;fill-opacity:1;stroke:black;stroke-width:2.00384164;stroke-linecap:square;stroke-linejoin:miter;stroke-miterlimit:10.43299961;stroke-dasharray:none;stroke-dashoffset:0;stroke-opacity:1"
           y2="588.93311"
           x2="501.21667"
           y1="588.93311"
           x1="471.80249" />
      </g>
      <text
         x="453.62256"
         y="565.81165"
         style="font-size:12px;font-style:normal;font-weight:normal;fill:black;fill-opacity:1;stroke:none;stroke-width:1px;stroke-linecap:butt;stroke-linejoin:miter;stroke-opacity:1;font-family:Bitstream Vera Sans"
         id="text2443"
         xml:space="preserve"><tspan
           x="453.62256"
           y="565.81165"
           style="font-size:18px;font-weight:bold"
           id="tspan2445">A</tspan></text>
      <text
         x="453.53467"
         y="595.49249"
         style="font-size:12px;font-style:normal;font-weight:normal;fill:black;fill-opacity:1;stroke:none;stroke-width:1px;stroke-linecap:butt;stroke-linejoin:miter;stroke-opacity:1;font-family:Bitstream Vera Sans"
         id="text2447"
         xml:space="preserve"><tspan
           x="453.53467"
           y="595.49249"
           style="font-size:18px;font-weight:bold"
           id="tspan2449">B</tspan></text>
      <text
         x="624.44678"
         y="579.45776"
         style="font-size:12px;font-style:normal;font-weight:normal;fill:black;fill-opacity:1;stroke:none;stroke-width:1px;stroke-linecap:butt;stroke-linejoin:miter;stroke-opacity:1;font-family:Bitstream Vera Sans"
         id="text2451"
         xml:space="preserve"><tspan
           x="624.44678"
           y="579.45776"
           style="font-size:18px;font-weight:bold"
           id="tspan2453">Q</tspan></text>
    </g>
  </g>
</svg>
