<?xml version="1.0" encoding="UTF-8" standalone="no"?>
<!-- Created with Inkscape (http://www.inkscape.org/) -->
<svg
   xmlns:svg="http://www.w3.org/2000/svg"
   xmlns="http://www.w3.org/2000/svg"
   version="1.0"
   width="400"
   height="260"
   id="svg2">
  <defs
     id="defs4" />
  <g
     transform="translate(-71.428558,-308.07648)"
     id="layer1">
    <path
       d="M 100.33508,343.07261 L 113.57337,343.07261 L 113.57337,333.01151 L 127.07643,343.33738 L 113.57355,353.75144 L 113.57355,343.11635"
       style="fill:none;fill-rule:evenodd;stroke:#000000;stroke-width:2;stroke-linecap:butt;stroke-linejoin:miter;stroke-miterlimit:4;stroke-dasharray:none;stroke-opacity:1"
       id="path2221" />
    <path
       d="M 128.05405,343.38148 L 140.33953,343.38148"
       style="fill:none;fill-rule:evenodd;stroke:#000000;stroke-width:2;stroke-linecap:butt;stroke-linejoin:miter;stroke-miterlimit:4;stroke-dasharray:none;stroke-opacity:1"
       id="path2223" />
    <rect
       width="3.3595409"
       height="18.139542"
       ry="0"
       x="124.44103"
       y="334.15738"
       style="fill:#000000;stroke:#000000;stroke-width:1.50915134;stroke-miterlimit:4;stroke-dasharray:none;stroke-opacity:1"
       id="rect3195" />
    <path
       d="M 100.44452,380.75152 L 115.96674,380.75152 L 115.96674,371.31472 L 115.96674,390.01194"
       style="fill:none;fill-rule:evenodd;stroke:#000000;stroke-width:2;stroke-linecap:butt;stroke-linejoin:miter;stroke-opacity:1"
       id="path3197" />
    <path
       d="M 139.56678,380.75152 L 124.04456,380.75152 L 124.04456,371.31472 L 124.04456,390.01194"
       style="fill:none;fill-rule:evenodd;stroke:#000000;stroke-width:2;stroke-linecap:butt;stroke-linejoin:miter;stroke-opacity:1"
       id="path4168" />
    <path
       d="M 25.3118,110.51045 L 35.10138,110.51045 C 35.10138,110.51045 30.04418,99.397955 37.570824,99.221566 C 44.536272,99.058329 43.744434,110.59865 41.539574,110.59865 C 39.334713,110.59865 39.422907,99.309761 45.155544,99.309761 C 50.888182,99.309761 51.770126,110.59864 48.595127,110.59864 C 45.420128,110.59864 46.65485,99.30976 52.299293,99.30976 C 57.943736,99.30976 59.090264,110.59865 55.562487,110.59865 C 52.03471,110.59865 53.974987,99.30976 59.531235,99.30976 C 65.087484,99.30976 64.38193,110.59864 62.529847,110.59864 C 60.677764,110.59864 71.96665,110.51045 71.96665,110.51045"
       transform="translate(71.428558,308.07648)"
       style="fill:none;fill-rule:evenodd;stroke:#000000;stroke-width:2;stroke-linecap:butt;stroke-linejoin:miter;stroke-opacity:1"
       id="path4176" />
    <path
       d="M 95.746721,445.49875 L 109.83433,445.49875 L 111.78356,439.95684 L 114.97321,450.625 L 118.51726,439.81829 L 121.61831,450.48645 L 124.98516,439.95684 L 128.35201,450.55573 L 130.21263,445.3602 L 144.38884,445.3602"
       style="fill:none;fill-rule:evenodd;stroke:#000000;stroke-width:1.77661574;stroke-linecap:butt;stroke-linejoin:miter;stroke-miterlimit:5;stroke-dasharray:none;stroke-opacity:1"
       id="path4178" />
    <path
       d="M 27.869438,174.27502 L 44.979156,174.27502 L 44.979156,168.80697 L 44.979156,179.91946"
       transform="translate(71.428558,308.07648)"
       style="fill:none;fill-rule:evenodd;stroke:#000000;stroke-width:2;stroke-linecap:butt;stroke-linejoin:miter;stroke-opacity:1"
       id="path5149" />
    <path
       d="M 141.26229,482.3515 L 123.298,482.3515 L 123.298,470.84797 L 123.298,494.08484"
       style="fill:none;fill-rule:evenodd;stroke:#000000;stroke-width:2;stroke-linecap:butt;stroke-linejoin:miter;stroke-opacity:1"
       id="path5151" />
    <path
       d="M 127.72414,476.5294 L 134.08009,476.5294"
       style="fill:none;fill-rule:evenodd;stroke:#000000;stroke-width:1px;stroke-linecap:butt;stroke-linejoin:miter;stroke-opacity:1"
       id="path5153" />
    <path
       d="M 130.90212,474.1793 L 130.90212,478.8795"
       style="fill:none;fill-rule:evenodd;stroke:#000000;stroke-width:1px;stroke-linecap:butt;stroke-linejoin:miter;stroke-opacity:1"
       id="path5155" />
    <path
       d="M 36.861117,221.47711 C 48.040308,203.65083 50.759571,241.41837 60.428061,222.08139"
       transform="translate(71.428558,308.07648)"
       style="fill:none;fill-rule:evenodd;stroke:#000000;stroke-width:2;stroke-linecap:butt;stroke-linejoin:miter;stroke-opacity:1"
       id="path5157" />
    <path
       d="M 65.715517 221.47711 A 17.221998 17.221998 0 1 1  31.271521,221.47711 A 17.221998 17.221998 0 1 1  65.715517 221.47711 z"
       transform="matrix(0.9834189,0,0,0.9834189,72.383703,312.20202)"
       style="fill:none;stroke:#000000;stroke-width:2.03372145;stroke-linecap:butt;stroke-linejoin:miter;stroke-miterlimit:5;stroke-dasharray:none;stroke-opacity:1"
       id="path5159" />
    <path
       d="M 275.01636,543.49359 L 291.48301,543.49359 L 291.48301,528.99086 L 315.53386,542.87663 L 291.49576,556.85361 L 291.49576,543.50951"
       style="fill:none;fill-rule:evenodd;stroke:#000000;stroke-width:2;stroke-linecap:butt;stroke-linejoin:miter;stroke-opacity:1"
       id="path5161" />
    <path
       d="M 254.10886 234.75238 A 4.7229962 4.7229962 0 1 1  244.66287,234.75238 A 4.7229962 4.7229962 0 1 1  254.10886 234.75238 z"
       transform="translate(71.734249,308.16985)"
       style="fill:none;stroke:#000000;stroke-width:2;stroke-linecap:butt;stroke-linejoin:miter;stroke-miterlimit:5;stroke-dasharray:none;stroke-opacity:1"
       id="path5163" />
    <path
       d="M 342.63598,542.92223 L 326.71773,542.92223"
       style="fill:none;fill-rule:evenodd;stroke:#000000;stroke-width:2;stroke-linecap:butt;stroke-linejoin:miter;stroke-opacity:1"
       id="path5165" />
    <path
       d="M 203.84311,186.52742 L 218.93344,186.52742"
       transform="translate(71.428558,308.07648)"
       style="fill:none;fill-rule:evenodd;stroke:#000000;stroke-width:2;stroke-linecap:butt;stroke-linejoin:miter;stroke-opacity:1"
       id="path5167" />
    <path
       d="M 275.27167,507.60348 L 290.362,507.60348"
       style="fill:none;fill-rule:evenodd;stroke:#000000;stroke-width:2;stroke-linecap:butt;stroke-linejoin:miter;stroke-opacity:1"
       id="path5169" />
    <path
       d="M 215.71747,180.2604 C 226.02507,193.20675 215.71747,205.90571 215.71747,205.90571"
       transform="translate(71.428558,308.07648)"
       style="fill:none;fill-rule:evenodd;stroke:#000000;stroke-width:2;stroke-linecap:butt;stroke-linejoin:miter;stroke-opacity:1"
       id="path5171" />
    <path
       d="M 221.07742,179.18841 C 251.75683,179.18841 255.13373,193.04183 255.13373,193.04183 L 271.37851,193.04183 L 255.05127,193.04183 C 250.65971,209.43137 220.99496,206.81278 220.99496,206.81278 C 235.17822,192.95936 221.07742,179.18841 221.07742,179.18841 z "
       transform="translate(71.428558,308.07648)"
       style="fill:none;fill-rule:evenodd;stroke:#000000;stroke-width:2;stroke-linecap:butt;stroke-linejoin:miter;stroke-opacity:1"
       id="path5173" />
    <path
       d="M 286.50598,446.11044 C 317.18539,446.11044 320.56229,459.96386 320.56229,459.96386 L 320.47983,459.96386 C 316.08827,476.3534 286.42352,473.73481 286.42352,473.73481 C 300.60678,459.88139 286.50598,446.11044 286.50598,446.11044 z "
       style="fill:none;fill-rule:evenodd;stroke:#000000;stroke-width:2;stroke-linecap:butt;stroke-linejoin:miter;stroke-opacity:1"
       id="path6144" />
    <path
       d="M 275.87805,454.07331 L 290.96838,454.07331"
       style="fill:none;fill-rule:evenodd;stroke:#000000;stroke-width:2;stroke-linecap:butt;stroke-linejoin:miter;stroke-opacity:1"
       id="path6146" />
    <path
       d="M 275.87805,467.07289 L 290.96838,467.07289"
       style="fill:none;fill-rule:evenodd;stroke:#000000;stroke-width:2;stroke-linecap:butt;stroke-linejoin:miter;stroke-opacity:1"
       id="path6148" />
    <path
       d="M 254.10886 234.75238 A 4.7229962 4.7229962 0 1 1  244.66287,234.75238 A 4.7229962 4.7229962 0 1 1  254.10886 234.75238 z"
       transform="matrix(0.6499792,0,0,0.6499792,161.84911,307.54743)"
       style="fill:none;stroke:#000000;stroke-width:2.80967331;stroke-linecap:butt;stroke-linejoin:miter;stroke-miterlimit:5;stroke-dasharray:none;stroke-opacity:1"
       id="path6150" />
    <path
       d="M 343.46059,460.13158 L 327.54234,460.13158"
       style="fill:none;fill-rule:evenodd;stroke:#000000;stroke-width:2;stroke-linecap:butt;stroke-linejoin:miter;stroke-opacity:1"
       id="path6152" />
    <path
       d="M 286.89693,404.03872 C 317.57634,404.03872 320.95324,417.89214 320.95324,417.89214 L 337.19802,417.89214 L 320.87078,417.89214 C 316.47922,434.28168 286.81447,431.66309 286.81447,431.66309 C 300.99773,417.80967 286.89693,404.03872 286.89693,404.03872 z "
       style="fill:none;fill-rule:evenodd;stroke:#000000;stroke-width:2;stroke-linecap:butt;stroke-linejoin:miter;stroke-opacity:1"
       id="path6154" />
    <path
       d="M 276.18354,412.13441 L 291.27387,412.13441"
       style="fill:none;fill-rule:evenodd;stroke:#000000;stroke-width:2;stroke-linecap:butt;stroke-linejoin:miter;stroke-opacity:1"
       id="path6156" />
    <path
       d="M 276.18354,425.13399 L 291.27387,425.13399"
       style="fill:none;fill-rule:evenodd;stroke:#000000;stroke-width:2;stroke-linecap:butt;stroke-linejoin:miter;stroke-opacity:1"
       id="path6158" />
    <path
       d="M 254.10886 234.75238 A 4.7229962 4.7229962 0 1 1  244.66287,234.75238 A 4.7229962 4.7229962 0 1 1  254.10886 234.75238 z"
       transform="matrix(0.6499792,0,0,0.6499792,167.3879,222.52418)"
       style="fill:none;stroke:#000000;stroke-width:2.80967331;stroke-linecap:butt;stroke-linejoin:miter;stroke-miterlimit:5;stroke-dasharray:none;stroke-opacity:1"
       id="path6160" />
    <path
       d="M 348.99938,375.10833 L 333.08113,375.10833"
       style="fill:none;fill-rule:evenodd;stroke:#000000;stroke-width:2;stroke-linecap:butt;stroke-linejoin:miter;stroke-opacity:1"
       id="path6162" />
    <path
       d="M 219.98902,54.008713 L 219.98902,80.967304 C 266.13267,83.386665 267.20732,51.416541 219.98902,54.008713 z "
       transform="translate(71.428558,308.07648)"
       style="fill:none;fill-rule:evenodd;stroke:#000000;stroke-width:2;stroke-linecap:butt;stroke-linejoin:miter;stroke-opacity:1"
       id="path6164" />
    <path
       d="M 275.83792,368.48003 L 290.92825,368.48003"
       style="fill:none;fill-rule:evenodd;stroke:#000000;stroke-width:2;stroke-linecap:butt;stroke-linejoin:miter;stroke-opacity:1"
       id="path6166" />
    <path
       d="M 275.83792,381.47961 L 290.92825,381.47961"
       style="fill:none;fill-rule:evenodd;stroke:#000000;stroke-width:2;stroke-linecap:butt;stroke-linejoin:miter;stroke-opacity:1"
       id="path6168" />
    <path
       d="M 343.3988,332.78366 L 327.48055,332.78366"
       style="fill:none;fill-rule:evenodd;stroke:#000000;stroke-width:2;stroke-linecap:butt;stroke-linejoin:miter;stroke-opacity:1"
       id="path6170" />
    <path
       d="M 291.82342,319.35468 L 291.82342,346.31327 C 337.96707,348.73263 339.04172,316.76251 291.82342,319.35468 z "
       style="fill:none;fill-rule:evenodd;stroke:#000000;stroke-width:2;stroke-linecap:butt;stroke-linejoin:miter;stroke-opacity:1"
       id="path6172" />
    <path
       d="M 275.83792,326.48003 L 290.92825,326.48003"
       style="fill:none;fill-rule:evenodd;stroke:#000000;stroke-width:2;stroke-linecap:butt;stroke-linejoin:miter;stroke-opacity:1"
       id="path6174" />
    <path
       d="M 275.83792,339.47961 L 290.92825,339.47961"
       style="fill:none;fill-rule:evenodd;stroke:#000000;stroke-width:2;stroke-linecap:butt;stroke-linejoin:miter;stroke-opacity:1"
       id="path6176" />
    <text
       x="150.97412"
       y="349.15585"
       style="font-size:15.29754925px;font-style:normal;font-weight:normal;fill:#000000;fill-opacity:1;stroke:none;stroke-width:1px;stroke-linecap:butt;stroke-linejoin:miter;stroke-opacity:1;font-family:Bitstream Vera Sans"
       id="text6178"
       xml:space="preserve"><tspan
         x="150.97412"
         y="349.15585"
         id="tspan6180">Diode</tspan></text>
    <text
       x="150.44872"
       y="385.06619"
       style="font-size:15.55612659px;font-style:normal;font-weight:normal;fill:#000000;fill-opacity:1;stroke:none;stroke-width:1px;stroke-linecap:butt;stroke-linejoin:miter;stroke-opacity:1;font-family:Bitstream Vera Sans"
       id="text6182"
       xml:space="preserve"><tspan
         x="150.44872"
         y="385.06619"
         id="tspan6184">Capacitor</tspan></text>
    <text
       x="150.44872"
       y="419.48138"
       style="font-size:15.55612659px;font-style:normal;font-weight:normal;fill:#000000;fill-opacity:1;stroke:none;stroke-width:1px;stroke-linecap:butt;stroke-linejoin:miter;stroke-opacity:1;font-family:Bitstream Vera Sans"
       id="text6186"
       xml:space="preserve"><tspan
         x="150.44872"
         y="419.48138"
         id="tspan6188">Inductor</tspan></text>
    <text
       x="150.44872"
       y="451.29919"
       style="font-size:15.55612659px;font-style:normal;font-weight:normal;fill:#000000;fill-opacity:1;stroke:none;stroke-width:1px;stroke-linecap:butt;stroke-linejoin:miter;stroke-opacity:1;font-family:Bitstream Vera Sans"
       id="text6190"
       xml:space="preserve"><tspan
         x="150.44872"
         y="451.29919"
         id="tspan6192">Resistor</tspan></text>
    <text
       x="150.44872"
       y="481.29919"
       style="font-size:15.55612659px;font-style:normal;font-weight:normal;fill:#000000;fill-opacity:1;stroke:none;stroke-width:1px;stroke-linecap:butt;stroke-linejoin:miter;stroke-opacity:1;font-family:Bitstream Vera Sans"
       id="text6194"
       xml:space="preserve"><tspan
         x="150.44872"
         y="481.29919"
         id="tspan6196">DC voltage</tspan><tspan
         x="150.44872"
         y="500.74435"
         id="tspan6198">source</tspan></text>
    <text
       x="150.44872"
       y="528.09906"
       style="font-size:15.55612659px;font-style:normal;font-weight:normal;fill:#000000;fill-opacity:1;stroke:none;stroke-width:1px;stroke-linecap:butt;stroke-linejoin:miter;stroke-opacity:1;font-family:Bitstream Vera Sans"
       id="text6200"
       xml:space="preserve"><tspan
         x="150.44872"
         y="528.09906"
         id="tspan6202">AC voltage</tspan><tspan
         x="150.44872"
         y="547.54425"
         id="tspan6204">source</tspan></text>
    <text
       x="363.04358"
       y="334.29477"
       style="font-size:15.29754925px;font-style:normal;font-weight:normal;fill:#000000;fill-opacity:1;stroke:none;stroke-width:1px;stroke-linecap:butt;stroke-linejoin:miter;stroke-opacity:1;font-family:Bitstream Vera Sans"
       id="text6206"
       xml:space="preserve"><tspan
         x="363.04358"
         y="334.29477"
         id="tspan6208">And gate</tspan></text>
    <text
       x="361.74319"
       y="379.89447"
       style="font-size:15.29754925px;font-style:normal;font-weight:normal;fill:#000000;fill-opacity:1;stroke:none;stroke-width:1px;stroke-linecap:butt;stroke-linejoin:miter;stroke-opacity:1;font-family:Bitstream Vera Sans"
       id="text6210"
       xml:space="preserve"><tspan
         x="361.74319"
         y="379.89447"
         id="tspan6212">Nand gate</tspan></text>
    <text
       x="362.36926"
       y="422.31186"
       style="font-size:15.29754925px;font-style:normal;font-weight:normal;fill:#000000;fill-opacity:1;stroke:none;stroke-width:1px;stroke-linecap:butt;stroke-linejoin:miter;stroke-opacity:1;font-family:Bitstream Vera Sans"
       id="text6214"
       xml:space="preserve"><tspan
         x="362.36926"
         y="422.31186"
         id="tspan6216">Or gate</tspan></text>
    <text
       x="361.95187"
       y="464.05014"
       style="font-size:15.29754925px;font-style:normal;font-weight:normal;fill:#000000;fill-opacity:1;stroke:none;stroke-width:1px;stroke-linecap:butt;stroke-linejoin:miter;stroke-opacity:1;font-family:Bitstream Vera Sans"
       id="text6218"
       xml:space="preserve"><tspan
         x="361.95187"
         y="464.05014"
         id="tspan6220">Nor gate</tspan></text>
    <text
       x="362.57794"
       y="505.37103"
       style="font-size:15.29754925px;font-style:normal;font-weight:normal;fill:#000000;fill-opacity:1;stroke:none;stroke-width:1px;stroke-linecap:butt;stroke-linejoin:miter;stroke-opacity:1;font-family:Bitstream Vera Sans"
       id="text6222"
       xml:space="preserve"><tspan
         x="362.57794"
         y="505.37103"
         id="tspan6224">Xor gate</tspan></text>
    <text
       x="361.74316"
       y="539.38776"
       style="font-size:15.29754925px;font-style:normal;font-weight:normal;fill:#000000;fill-opacity:1;stroke:none;stroke-width:1px;stroke-linecap:butt;stroke-linejoin:miter;stroke-opacity:1;font-family:Bitstream Vera Sans"
       id="text6226"
       xml:space="preserve"><tspan
         x="361.74316"
         y="539.38776"
         id="tspan6228">Inverter</tspan><tspan
         x="361.74316"
         y="558.5097"
         id="tspan6232">(Not gate)</tspan></text>
  </g>
</svg>
