<?xml version="1.0" encoding="UTF-8" standalone="no"?>
<svg
   xmlns:dc="http://purl.org/dc/elements/1.1/"
   xmlns:cc="http://creativecommons.org/ns#"
   xmlns:rdf="http://www.w3.org/1999/02/22-rdf-syntax-ns#"
   xmlns:svg="http://www.w3.org/2000/svg"
   xmlns="http://www.w3.org/2000/svg"
   xmlns:sodipodi="http://sodipodi.sourceforge.net/DTD/sodipodi-0.dtd"
   xmlns:inkscape="http://www.inkscape.org/namespaces/inkscape"
   width="500"
   height="350"
   viewBox="0 0 132.29166 92.604169"
   version="1.1"
   id="svg1556"
   inkscape:version="1.0.1 (3bc2e813f5, 2020-09-07)"
   sodipodi:docname="logic-not-transistor.svg">
  <defs
     id="defs1550" />
  <sodipodi:namedview
     id="base"
     pagecolor="#ffffff"
     bordercolor="#666666"
     borderopacity="1.0"
     inkscape:pageopacity="0.0"
     inkscape:pageshadow="2"
     inkscape:zoom="1.4"
     inkscape:cx="251.26135"
     inkscape:cy="143.12175"
     inkscape:document-units="mm"
     inkscape:current-layer="layer1"
     inkscape:document-rotation="0"
     showgrid="false"
     units="px"
     inkscape:window-width="1642"
     inkscape:window-height="971"
     inkscape:window-x="2050"
     inkscape:window-y="33"
     inkscape:window-maximized="0" />
  <metadata
     id="metadata1553">
    <rdf:RDF>
      <cc:Work
         rdf:about="">
        <dc:format>image/svg+xml</dc:format>
        <dc:type
           rdf:resource="http://purl.org/dc/dcmitype/StillImage" />
        <dc:title />
      </cc:Work>
    </rdf:RDF>
  </metadata>
  <g
     inkscape:label="Layer 1"
     inkscape:groupmode="layer"
     id="layer1">
    <g
       id="g3121"
       transform="matrix(1.8,0,0,1.8,-42.671418,-34.695262)">
      <g
         style="fill:#840000;fill-opacity:0;stroke:#840000;stroke-width:0;stroke-linecap:round;stroke-linejoin:round;stroke-opacity:1"
         id="g714"
         transform="matrix(0.00254,0,0,0.00254,-8.8752704,-20.431044)">
        <g
           id="g698" />
        <g
           style="fill:#840000;fill-opacity:0;stroke:#840000;stroke-width:60;stroke-linecap:round;stroke-linejoin:round;stroke-opacity:1"
           id="g702">
          <path
             style="fill:none;fill-opacity:0;stroke:#840000;stroke-width:60;stroke-linecap:round;stroke-linejoin:round;stroke-opacity:1"
             d="m 28500,31000 v 500 h 500 l -500,500 -500,-500 h 500"
             id="path700" />
        </g>
        <g
           style="fill:#008484;fill-opacity:0;stroke:#008484;stroke-width:60;stroke-linecap:round;stroke-linejoin:round;stroke-opacity:1"
           id="g712">
          <text
             x="28550"
             y="33000"
             textLength="1580"
             font-size="660px"
             lengthAdjust="spacingAndGlyphs"
             text-anchor="middle"
             opacity="0"
             id="text704">GND</text>
          <path
             d="m 28160,32500 -40,-30 h -70 l -80,30 -40,40 -30,50 -20,100 v 70 l 20,90 30,50 40,50 80,20 h 40 l 70,-20 30,-30 v -160 h -100"
             id="path706" />
          <path
             d="m 28400,32970 v -500 l 290,500 v -500"
             id="path708" />
          <path
             d="m 28930,32970 v -500 h 120 l 70,30 40,40 30,50 20,100 v 70 l -20,90 -30,50 -40,50 -70,20 h -120"
             id="path710" />
        </g>
      </g>
      <g
         style="fill:#840000;fill-opacity:0;stroke:#840000;stroke-width:0;stroke-linecap:round;stroke-linejoin:round;stroke-opacity:1"
         id="g1094"
         transform="matrix(0.00254,0,0,0.00254,-8.8752704,-20.431044)">
        <g
           id="g1082" />
        <g
           style="fill:#840000;fill-opacity:0;stroke:#840000;stroke-width:100;stroke-linecap:round;stroke-linejoin:round;stroke-opacity:1"
           id="g1086">
          <rect
             x="28100"
             y="22000"
             width="800"
             height="2000"
             rx="0"
             id="rect1084" />
        </g>
        <g
           style="fill:#840000;fill-opacity:0;stroke:#840000;stroke-width:60;stroke-linecap:round;stroke-linejoin:round;stroke-opacity:1"
           id="g1092">
          <path
             d="m 28500,22000 v -500"
             id="path1088" />
          <path
             d="m 28500,24000 v 500"
             id="path1090" />
        </g>
      </g>
      <g
         style="fill:#840000;fill-opacity:0;stroke:#840000;stroke-width:0;stroke-linecap:round;stroke-linejoin:round;stroke-opacity:1"
         id="g1108"
         transform="matrix(0.00254,0,0,0.00254,-8.8752704,-20.431044)">
        <g
           id="g1096" />
        <g
           style="fill:#840000;fill-opacity:0;stroke:#840000;stroke-width:100;stroke-linecap:round;stroke-linejoin:round;stroke-opacity:1"
           id="g1100">
          <rect
             x="22000"
             y="27100"
             width="2000"
             height="800"
             rx="0"
             id="rect1098" />
        </g>
        <g
           style="fill:#840000;fill-opacity:0;stroke:#840000;stroke-width:60;stroke-linecap:round;stroke-linejoin:round;stroke-opacity:1"
           id="g1106">
          <path
             d="m 24000,27500 h 500"
             id="path1102" />
          <path
             d="m 22000,27500 h -500"
             id="path1104" />
        </g>
      </g>
      <g
         style="fill:#840000;fill-opacity:0;stroke:#840000;stroke-width:0;stroke-linecap:round;stroke-linejoin:round;stroke-opacity:1"
         id="g1130"
         transform="matrix(0.00254,0,0,0.00254,-8.8752704,-20.431044)">
        <g
           id="g1110" />
        <g
           style="fill:#840000;fill-opacity:0;stroke:#840000;stroke-width:60;stroke-linecap:round;stroke-linejoin:round;stroke-opacity:1"
           id="g1118">
          <path
             style="fill:none;fill-opacity:0;stroke:#840000;stroke-width:60;stroke-linecap:round;stroke-linejoin:round;stroke-opacity:1"
             d="m 28200,20000 300,-500"
             id="path1112" />
          <path
             style="fill:none;fill-opacity:0;stroke:#840000;stroke-width:60;stroke-linecap:round;stroke-linejoin:round;stroke-opacity:1"
             d="M 28500,20500 V 19500"
             id="path1114" />
          <path
             style="fill:none;fill-opacity:0;stroke:#840000;stroke-width:60;stroke-linecap:round;stroke-linejoin:round;stroke-opacity:1"
             d="m 28500,19500 300,500"
             id="path1116" />
        </g>
        <g
           style="fill:#008484;fill-opacity:0;stroke:#008484;stroke-width:60;stroke-linecap:round;stroke-linejoin:round;stroke-opacity:1"
           id="g1128">
          <text
             x="28650"
             y="19040"
             textLength="1490"
             font-size="660px"
             lengthAdjust="spacingAndGlyphs"
             text-anchor="middle"
             opacity="0"
             id="text1120">VCC</text>
          <path
             d="m 27980,18510 170,500 160,-500"
             id="path1122" />
          <path
             d="m 28760,18960 -20,30 -70,20 h -50 l -70,-20 -50,-50 -20,-50 -30,-90 v -70 l 30,-100 20,-50 50,-40 70,-30 h 50 l 70,30 20,20"
             id="path1124" />
          <path
             d="m 29260,18960 -20,30 -70,20 h -50 l -70,-20 -50,-50 -20,-50 -30,-90 v -70 l 30,-100 20,-50 50,-40 70,-30 h 50 l 70,30 20,20"
             id="path1126" />
        </g>
      </g>
      <g
         style="fill:#008484;fill-opacity:0;stroke:#008484;stroke-width:0;stroke-linecap:round;stroke-linejoin:round;stroke-opacity:1"
         id="g1180"
         transform="matrix(0.00254,0,0,0.00254,-8.8752704,-20.431044)">
        <g
           id="g1132" />
        <g
           style="fill:#840000;fill-opacity:0;stroke:#840000;stroke-width:0;stroke-linecap:round;stroke-linejoin:round;stroke-opacity:1"
           id="g1134" />
        <g
           style="fill:#840000;fill-opacity:0;stroke:#840000;stroke-width:100;stroke-linecap:round;stroke-linejoin:round;stroke-opacity:1"
           id="g1138">
          <circle
             cx="28000"
             cy="27500"
             r="1110"
             id="circle1136" />
        </g>
        <g
           style="fill:#840000;fill-opacity:0;stroke:#840000;stroke-width:60;stroke-linecap:round;stroke-linejoin:round;stroke-opacity:1"
           id="g1144">
          <path
             style="fill:none;fill-opacity:0;stroke:#840000;stroke-width:60;stroke-linecap:round;stroke-linejoin:round;stroke-opacity:1"
             d="m 27750,27250 750,-750"
             id="path1140" />
          <path
             style="fill:none;fill-opacity:0;stroke:#840000;stroke-width:60;stroke-linecap:round;stroke-linejoin:round;stroke-opacity:1"
             d="m 27750,27750 750,750 v 0"
             id="path1142" />
        </g>
        <g
           style="fill:#840000;fill-opacity:0;stroke:#840000;stroke-width:200;stroke-linecap:round;stroke-linejoin:round;stroke-opacity:1"
           id="g1148">
          <path
             style="fill:none;fill-opacity:0;stroke:#840000;stroke-width:200;stroke-linecap:round;stroke-linejoin:round;stroke-opacity:1"
             d="m 27750,26750 v 1500 0"
             id="path1146" />
        </g>
        <g
           style="fill:#840000;fill-opacity:1;stroke:#840000;stroke-width:60;stroke-linecap:round;stroke-linejoin:round;stroke-opacity:1"
           id="g1152">
          <path
             style="fill:#840000;fill-opacity:1;fill-rule:evenodd;stroke:#840000;stroke-width:60;stroke-linecap:round;stroke-linejoin:round;stroke-opacity:1"
             d="m 28000,28200 200,-200 200,400 z"
             id="path1150" />
        </g>
        <g
           style="fill:#840000;fill-opacity:0;stroke:#840000;stroke-width:60;stroke-linecap:round;stroke-linejoin:round;stroke-opacity:1"
           id="g1178">
          <path
             d="m 28500,28500 v 1000"
             id="path1154" />
          <g
             transform="rotate(-90,28600,29000)"
             id="g1158">
            <text
               x="28600"
               y="29500"
               textLength="540"
               font-size="660px"
               lengthAdjust="spacingAndGlyphs"
               text-anchor="middle"
               opacity="0"
               id="text1156">1</text>
          </g>
          <path
             d="m 29070,28850 v 290"
             id="path1160" />
          <path
             d="m 29070,29000 h -500 l 70,40 50,50 20,50"
             id="path1162" />
          <path
             d="M 27750,27500 H 25500"
             id="path1164" />
          <text
             x="26620"
             y="28100"
             textLength="540"
             font-size="660px"
             lengthAdjust="spacingAndGlyphs"
             text-anchor="middle"
             opacity="0"
             id="text1166">2</text>
          <path
             d="m 26470,27620 30,-20 40,-30 h 120 l 50,30 20,20 30,50 v 40 l -30,80 -280,280 h 310"
             id="path1168" />
          <path
             d="M 28500,26500 V 25500"
             id="path1170" />
          <g
             transform="rotate(-90,28600,26000)"
             id="g1174">
            <text
               x="28600"
               y="26500"
               textLength="540"
               font-size="660px"
               lengthAdjust="spacingAndGlyphs"
               text-anchor="middle"
               opacity="0"
               id="text1172">3</text>
          </g>
          <path
             d="m 28570,26160 v -310 l 190,170 v -70 l 30,-50 20,-20 50,-30 h 120 l 40,30 30,20 20,50 v 140 l -20,50 -30,20"
             id="path1176" />
        </g>
      </g>
      <g
         style="fill:#008400;fill-opacity:0;stroke:#008400;stroke-width:60;stroke-linecap:round;stroke-linejoin:round;stroke-opacity:1"
         id="g1250"
         transform="matrix(0.00254,0,0,0.00254,-8.8752704,-20.431044)">
        <path
           d="m 28500,25000 v -500"
           id="path1220" />
        <path
           d="M 34000,25000 H 28500"
           id="path1222" />
        <path
           d="M 28500,21500 V 20500"
           id="path1224" />
        <path
           d="m 28500,25500 v -500"
           id="path1228" />
        <path
           d="M 28500,31000 V 29500"
           id="path1232" />
        <path
           d="m 24500,27500 h 1000"
           id="path1240" />
        <path
           d="m 20500,27500 h 1000"
           id="path1246" />
      </g>
      <g
         style="fill:#840000;fill-opacity:0;stroke:#840000;stroke-width:60;stroke-linecap:round;stroke-linejoin:round;stroke-opacity:1"
         id="g1270"
         transform="matrix(0.00254,0,0,0.00254,-8.8752704,-20.431044)">
        <text
           x="34100"
           y="25250"
           textLength="580"
           font-size="660px"
           lengthAdjust="spacingAndGlyphs"
           text-anchor="start"
           opacity="0"
           id="text1264">Q</text>
        <path
           d="m 34580,25270 -50,-20 -50,-50 -70,-70 -50,-30 h -40"
           id="path1266" />
        <path
           d="m 34340,25220 -50,-20 -50,-50 -20,-100 v -160 l 20,-100 50,-40 50,-30 h 90 l 50,30 50,40 20,100 v 160 l -20,100 -50,50 -50,20 h -90"
           id="path1268" />
      </g>
      <g
         style="fill:#840000;fill-opacity:0;stroke:#840000;stroke-width:100;stroke-linecap:round;stroke-linejoin:round;stroke-opacity:1"
         id="g1274"
         transform="matrix(0.00254,0,0,0.00254,-8.8752704,-20.431044)">
        <path
           style="fill:none;fill-opacity:0;stroke:#840000;stroke-width:100;stroke-linecap:round;stroke-linejoin:round;stroke-opacity:1"
           d="m 34000,25000 v 440 h 750 l 250,-440 -250,-440 h -750 z"
           id="path1272" />
      </g>
      <g
         style="fill:#840000;fill-opacity:0;stroke:#840000;stroke-width:60;stroke-linecap:round;stroke-linejoin:round;stroke-opacity:1"
         id="g1282"
         transform="matrix(0.00254,0,0,0.00254,-8.8752704,-20.431044)">
        <text
           x="20190"
           y="27750"
           textLength="490"
           font-size="660px"
           lengthAdjust="spacingAndGlyphs"
           text-anchor="end"
           opacity="0"
           id="text1276">A</text>
        <path
           d="m 19820,27580 h 240"
           id="path1278" />
        <path
           d="m 19770,27720 170,-500 170,500"
           id="path1280" />
      </g>
      <g
         style="fill:#840000;fill-opacity:0;stroke:#840000;stroke-width:100;stroke-linecap:round;stroke-linejoin:round;stroke-opacity:1"
         id="g1286"
         transform="matrix(0.00254,0,0,0.00254,-8.8752704,-20.431044)">
        <path
           style="fill:none;fill-opacity:0;stroke:#840000;stroke-width:100;stroke-linecap:round;stroke-linejoin:round;stroke-opacity:1"
           d="m 20500,27500 -250,-440 h -660 v 440 440 h 660 z"
           id="path1284" />
      </g>
      <g
         style="fill:#008400;fill-opacity:1;stroke:#008400;stroke-width:100;stroke-linecap:round;stroke-linejoin:round;stroke-opacity:1"
         id="g1516"
         transform="matrix(0.00254,0,0,0.00254,-8.8752704,-20.431044)">
        <circle
           cx="28500"
           cy="25000"
           r="200"
           id="circle1514" />
      </g>
    </g>
  </g>
</svg>
