<?xml version="1.0" encoding="UTF-8" standalone="no"?>
<svg
   xmlns:dc="http://purl.org/dc/elements/1.1/"
   xmlns:cc="http://creativecommons.org/ns#"
   xmlns:rdf="http://www.w3.org/1999/02/22-rdf-syntax-ns#"
   xmlns:svg="http://www.w3.org/2000/svg"
   xmlns="http://www.w3.org/2000/svg"
   xmlns:sodipodi="http://sodipodi.sourceforge.net/DTD/sodipodi-0.dtd"
   xmlns:inkscape="http://www.inkscape.org/namespaces/inkscape"
   width="500"
   height="350"
   viewBox="0 0 132.29166 92.604169"
   version="1.1"
   id="svg1556"
   inkscape:version="1.0.1 (3bc2e813f5, 2020-09-07)"
   sodipodi:docname="logic-nand-transistor.svg">
  <defs
     id="defs1550" />
  <sodipodi:namedview
     id="base"
     pagecolor="#ffffff"
     bordercolor="#666666"
     borderopacity="1.0"
     inkscape:pageopacity="0.0"
     inkscape:pageshadow="2"
     inkscape:zoom="1.4"
     inkscape:cx="287.82559"
     inkscape:cy="143.12175"
     inkscape:document-units="mm"
     inkscape:current-layer="layer1"
     inkscape:document-rotation="0"
     showgrid="false"
     units="px"
     inkscape:window-width="1642"
     inkscape:window-height="971"
     inkscape:window-x="2050"
     inkscape:window-y="33"
     inkscape:window-maximized="0" />
  <metadata
     id="metadata1553">
    <rdf:RDF>
      <cc:Work
         rdf:about="">
        <dc:format>image/svg+xml</dc:format>
        <dc:type
           rdf:resource="http://purl.org/dc/dcmitype/StillImage" />
        <dc:title></dc:title>
      </cc:Work>
    </rdf:RDF>
  </metadata>
  <g
     inkscape:label="Layer 1"
     inkscape:groupmode="layer"
     id="layer1">
    <g
       style="fill:#008400;fill-opacity:0;stroke:#008400;stroke-width:60;stroke-linecap:round;stroke-linejoin:round;stroke-opacity:1"
       id="g1250"
       transform="matrix(0.00254,0,0,0.00254,-63.008207,-18.857302)" />
    <g
       id="g5382"
       transform="matrix(1.5,0,0,1.5,-30.832455,-12.126317)">
      <g
         style="fill:#840000;fill-opacity:0;stroke:#840000;stroke-width:0;stroke-linecap:round;stroke-linejoin:round;stroke-opacity:1"
         id="g848"
         transform="matrix(0.00254,0,0,0.00254,-63.008207,-18.857302)">
        <g
           id="g828" />
        <g
           style="fill:#840000;fill-opacity:0;stroke:#840000;stroke-width:60;stroke-linecap:round;stroke-linejoin:round;stroke-opacity:1"
           id="g836">
          <path
             style="fill:none;fill-opacity:0;stroke:#840000;stroke-width:60;stroke-linecap:round;stroke-linejoin:round;stroke-opacity:1"
             d="m 51200,14500 300,-500"
             id="path830" />
          <path
             style="fill:none;fill-opacity:0;stroke:#840000;stroke-width:60;stroke-linecap:round;stroke-linejoin:round;stroke-opacity:1"
             d="M 51500,15000 V 14000"
             id="path832" />
          <path
             style="fill:none;fill-opacity:0;stroke:#840000;stroke-width:60;stroke-linecap:round;stroke-linejoin:round;stroke-opacity:1"
             d="m 51500,14000 300,500"
             id="path834" />
        </g>
        <g
           style="fill:#008484;fill-opacity:0;stroke:#008484;stroke-width:60;stroke-linecap:round;stroke-linejoin:round;stroke-opacity:1"
           id="g846">
          <text
             x="51650"
             y="13540"
             textLength="1490"
             font-size="660px"
             lengthAdjust="spacingAndGlyphs"
             text-anchor="middle"
             opacity="0"
             id="text838">VCC</text>
          <path
             d="m 50980,13010 170,500 160,-500"
             id="path840" />
          <path
             d="m 51760,13460 -20,30 -70,20 h -50 l -70,-20 -50,-50 -20,-50 -30,-90 v -70 l 30,-100 20,-50 50,-40 70,-30 h 50 l 70,30 20,20"
             id="path842" />
          <path
             d="m 52260,13460 -20,30 -70,20 h -50 l -70,-20 -50,-50 -20,-50 -30,-90 v -70 l 30,-100 20,-50 50,-40 70,-30 h 50 l 70,30 20,20"
             id="path844" />
        </g>
      </g>
      <g
         style="fill:#008484;fill-opacity:0;stroke:#008484;stroke-width:0;stroke-linecap:round;stroke-linejoin:round;stroke-opacity:1"
         id="g864"
         transform="matrix(0.00254,0,0,0.00254,-63.008207,-18.857302)">
        <g
           id="g850" />
        <g
           style="fill:#840000;fill-opacity:0;stroke:#840000;stroke-width:0;stroke-linecap:round;stroke-linejoin:round;stroke-opacity:1"
           id="g852" />
        <g
           style="fill:#840000;fill-opacity:0;stroke:#840000;stroke-width:100;stroke-linecap:round;stroke-linejoin:round;stroke-opacity:1"
           id="g856">
          <rect
             x="51100"
             y="16500"
             width="800"
             height="2000"
             rx="0"
             id="rect854" />
        </g>
        <g
           style="fill:#840000;fill-opacity:0;stroke:#840000;stroke-width:60;stroke-linecap:round;stroke-linejoin:round;stroke-opacity:1"
           id="g862">
          <path
             d="m 51500,16500 v -500"
             id="path858" />
          <path
             d="m 51500,18500 v 500"
             id="path860" />
        </g>
      </g>
      <g
         style="fill:#840000;fill-opacity:0;stroke:#840000;stroke-width:0;stroke-linecap:round;stroke-linejoin:round;stroke-opacity:1"
         id="g882"
         transform="matrix(0.00254,0,0,0.00254,-63.008207,-18.857302)">
        <g
           id="g866" />
        <g
           style="fill:#840000;fill-opacity:0;stroke:#840000;stroke-width:60;stroke-linecap:round;stroke-linejoin:round;stroke-opacity:1"
           id="g870">
          <path
             style="fill:none;fill-opacity:0;stroke:#840000;stroke-width:60;stroke-linecap:round;stroke-linejoin:round;stroke-opacity:1"
             d="m 51500,30500 v 500 h 500 l -500,500 -500,-500 h 500"
             id="path868" />
        </g>
        <g
           style="fill:#008484;fill-opacity:0;stroke:#008484;stroke-width:60;stroke-linecap:round;stroke-linejoin:round;stroke-opacity:1"
           id="g880">
          <text
             x="51550"
             y="32500"
             textLength="1580"
             font-size="660px"
             lengthAdjust="spacingAndGlyphs"
             text-anchor="middle"
             opacity="0"
             id="text872">GND</text>
          <path
             d="m 51160,32000 -40,-30 h -70 l -80,30 -40,40 -30,50 -20,100 v 70 l 20,90 30,50 40,50 80,20 h 40 l 70,-20 30,-30 v -160 h -100"
             id="path874" />
          <path
             d="m 51400,32470 v -500 l 290,500 v -500"
             id="path876" />
          <path
             d="m 51930,32470 v -500 h 120 l 70,30 40,40 30,50 20,100 v 70 l -20,90 -30,50 -40,50 -70,20 h -120"
             id="path878" />
        </g>
      </g>
      <g
         style="fill:#008484;fill-opacity:0;stroke:#008484;stroke-width:0;stroke-linecap:round;stroke-linejoin:round;stroke-opacity:1"
         id="g922"
         transform="matrix(0.00254,0,0,0.00254,-63.008207,-18.857302)">
        <g
           id="g908" />
        <g
           style="fill:#840000;fill-opacity:0;stroke:#840000;stroke-width:0;stroke-linecap:round;stroke-linejoin:round;stroke-opacity:1"
           id="g910" />
        <g
           style="fill:#840000;fill-opacity:0;stroke:#840000;stroke-width:100;stroke-linecap:round;stroke-linejoin:round;stroke-opacity:1"
           id="g914">
          <rect
             x="45000"
             y="26600"
             width="2000"
             height="800"
             rx="0"
             id="rect912" />
        </g>
        <g
           style="fill:#840000;fill-opacity:0;stroke:#840000;stroke-width:60;stroke-linecap:round;stroke-linejoin:round;stroke-opacity:1"
           id="g920">
          <path
             d="m 47000,27000 h 500"
             id="path916" />
          <path
             d="m 45000,27000 h -500"
             id="path918" />
        </g>
      </g>
      <g
         style="fill:#840000;fill-opacity:0;stroke:#840000;stroke-width:0;stroke-linecap:round;stroke-linejoin:round;stroke-opacity:1"
         id="g936"
         transform="matrix(0.00254,0,0,0.00254,-63.008207,-18.857302)">
        <g
           id="g924" />
        <g
           style="fill:#840000;fill-opacity:0;stroke:#840000;stroke-width:100;stroke-linecap:round;stroke-linejoin:round;stroke-opacity:1"
           id="g928">
          <rect
             x="45000"
             y="21600"
             width="2000"
             height="800"
             rx="0"
             id="rect926" />
        </g>
        <g
           style="fill:#840000;fill-opacity:0;stroke:#840000;stroke-width:60;stroke-linecap:round;stroke-linejoin:round;stroke-opacity:1"
           id="g934">
          <path
             d="m 47000,22000 h 500"
             id="path930" />
          <path
             d="m 45000,22000 h -500"
             id="path932" />
        </g>
      </g>
      <g
         style="fill:#840000;fill-opacity:0;stroke:#840000;stroke-width:0;stroke-linecap:round;stroke-linejoin:round;stroke-opacity:1"
         id="g984"
         transform="matrix(0.00254,0,0,0.00254,-63.008207,-18.857302)">
        <g
           id="g938" />
        <g
           style="fill:#840000;fill-opacity:0;stroke:#840000;stroke-width:100;stroke-linecap:round;stroke-linejoin:round;stroke-opacity:1"
           id="g942">
          <circle
             cx="51000"
             cy="22000"
             r="1110"
             id="circle940" />
        </g>
        <g
           style="fill:#840000;fill-opacity:0;stroke:#840000;stroke-width:60;stroke-linecap:round;stroke-linejoin:round;stroke-opacity:1"
           id="g948">
          <path
             style="fill:none;fill-opacity:0;stroke:#840000;stroke-width:60;stroke-linecap:round;stroke-linejoin:round;stroke-opacity:1"
             d="m 50750,21750 750,-750"
             id="path944" />
          <path
             style="fill:none;fill-opacity:0;stroke:#840000;stroke-width:60;stroke-linecap:round;stroke-linejoin:round;stroke-opacity:1"
             d="m 50750,22250 750,750 v 0"
             id="path946" />
        </g>
        <g
           style="fill:#840000;fill-opacity:0;stroke:#840000;stroke-width:200;stroke-linecap:round;stroke-linejoin:round;stroke-opacity:1"
           id="g952">
          <path
             style="fill:none;fill-opacity:0;stroke:#840000;stroke-width:200;stroke-linecap:round;stroke-linejoin:round;stroke-opacity:1"
             d="m 50750,21250 v 1500 0"
             id="path950" />
        </g>
        <g
           style="fill:#840000;fill-opacity:1;stroke:#840000;stroke-width:60;stroke-linecap:round;stroke-linejoin:round;stroke-opacity:1"
           id="g956">
          <path
             style="fill:#840000;fill-opacity:1;fill-rule:evenodd;stroke:#840000;stroke-width:60;stroke-linecap:round;stroke-linejoin:round;stroke-opacity:1"
             d="m 51000,22700 200,-200 200,400 z"
             id="path954" />
        </g>
        <g
           style="fill:#840000;fill-opacity:0;stroke:#840000;stroke-width:60;stroke-linecap:round;stroke-linejoin:round;stroke-opacity:1"
           id="g982">
          <path
             d="m 51500,23000 v 1000"
             id="path958" />
          <g
             transform="rotate(-90,51600,23500)"
             id="g962">
            <text
               x="51600"
               y="24000"
               textLength="540"
               font-size="660px"
               lengthAdjust="spacingAndGlyphs"
               text-anchor="middle"
               opacity="0"
               id="text960">1</text>
          </g>
          <path
             d="m 52070,23350 v 290"
             id="path964" />
          <path
             d="m 52070,23500 h -500 l 70,40 50,50 20,50"
             id="path966" />
          <path
             d="M 50750,22000 H 48500"
             id="path968" />
          <text
             x="49620"
             y="22600"
             textLength="540"
             font-size="660px"
             lengthAdjust="spacingAndGlyphs"
             text-anchor="middle"
             opacity="0"
             id="text970">2</text>
          <path
             d="m 49470,22120 30,-20 40,-30 h 120 l 50,30 20,20 30,50 v 40 l -30,80 -280,280 h 310"
             id="path972" />
          <path
             d="M 51500,21000 V 20000"
             id="path974" />
          <g
             transform="rotate(-90,51600,20500)"
             id="g978">
            <text
               x="51600"
               y="21000"
               textLength="540"
               font-size="660px"
               lengthAdjust="spacingAndGlyphs"
               text-anchor="middle"
               opacity="0"
               id="text976">3</text>
          </g>
          <path
             d="m 51570,20660 v -310 l 190,170 v -70 l 30,-50 20,-20 50,-30 h 120 l 40,30 30,20 20,50 v 140 l -20,50 -30,20"
             id="path980" />
        </g>
      </g>
      <g
         style="fill:#840000;fill-opacity:0;stroke:#840000;stroke-width:0;stroke-linecap:round;stroke-linejoin:round;stroke-opacity:1"
         id="g1032"
         transform="matrix(0.00254,0,0,0.00254,-63.008207,-18.857302)">
        <g
           id="g986" />
        <g
           style="fill:#840000;fill-opacity:0;stroke:#840000;stroke-width:100;stroke-linecap:round;stroke-linejoin:round;stroke-opacity:1"
           id="g990">
          <circle
             cx="51000"
             cy="27000"
             r="1110"
             id="circle988" />
        </g>
        <g
           style="fill:#840000;fill-opacity:0;stroke:#840000;stroke-width:60;stroke-linecap:round;stroke-linejoin:round;stroke-opacity:1"
           id="g996">
          <path
             style="fill:none;fill-opacity:0;stroke:#840000;stroke-width:60;stroke-linecap:round;stroke-linejoin:round;stroke-opacity:1"
             d="m 50750,26750 750,-750"
             id="path992" />
          <path
             style="fill:none;fill-opacity:0;stroke:#840000;stroke-width:60;stroke-linecap:round;stroke-linejoin:round;stroke-opacity:1"
             d="m 50750,27250 750,750 v 0"
             id="path994" />
        </g>
        <g
           style="fill:#840000;fill-opacity:0;stroke:#840000;stroke-width:200;stroke-linecap:round;stroke-linejoin:round;stroke-opacity:1"
           id="g1000">
          <path
             style="fill:none;fill-opacity:0;stroke:#840000;stroke-width:200;stroke-linecap:round;stroke-linejoin:round;stroke-opacity:1"
             d="m 50750,26250 v 1500 0"
             id="path998" />
        </g>
        <g
           style="fill:#840000;fill-opacity:1;stroke:#840000;stroke-width:60;stroke-linecap:round;stroke-linejoin:round;stroke-opacity:1"
           id="g1004">
          <path
             style="fill:#840000;fill-opacity:1;fill-rule:evenodd;stroke:#840000;stroke-width:60;stroke-linecap:round;stroke-linejoin:round;stroke-opacity:1"
             d="m 51000,27700 200,-200 200,400 z"
             id="path1002" />
        </g>
        <g
           style="fill:#840000;fill-opacity:0;stroke:#840000;stroke-width:60;stroke-linecap:round;stroke-linejoin:round;stroke-opacity:1"
           id="g1030">
          <path
             d="m 51500,28000 v 1000"
             id="path1006" />
          <g
             transform="rotate(-90,51600,28500)"
             id="g1010">
            <text
               x="51600"
               y="29000"
               textLength="540"
               font-size="660px"
               lengthAdjust="spacingAndGlyphs"
               text-anchor="middle"
               opacity="0"
               id="text1008">1</text>
          </g>
          <path
             d="m 52070,28350 v 290"
             id="path1012" />
          <path
             d="m 52070,28500 h -500 l 70,40 50,50 20,50"
             id="path1014" />
          <path
             d="M 50750,27000 H 48500"
             id="path1016" />
          <text
             x="49620"
             y="27600"
             textLength="540"
             font-size="660px"
             lengthAdjust="spacingAndGlyphs"
             text-anchor="middle"
             opacity="0"
             id="text1018">2</text>
          <path
             d="m 49470,27120 30,-20 40,-30 h 120 l 50,30 20,20 30,50 v 40 l -30,80 -280,280 h 310"
             id="path1020" />
          <path
             d="M 51500,26000 V 25000"
             id="path1022" />
          <g
             transform="rotate(-90,51600,25500)"
             id="g1026">
            <text
               x="51600"
               y="26000"
               textLength="540"
               font-size="660px"
               lengthAdjust="spacingAndGlyphs"
               text-anchor="middle"
               opacity="0"
               id="text1024">3</text>
          </g>
          <path
             d="m 51570,25660 v -310 l 190,170 v -70 l 30,-50 20,-20 50,-30 h 120 l 40,30 30,20 20,50 v 140 l -20,50 -30,20"
             id="path1028" />
        </g>
      </g>
      <path
         d="m 51500,19500 v 500"
         id="path1186"
         style="fill:#008400;fill-opacity:0;stroke:#008400;stroke-width:60;stroke-linecap:round;stroke-linejoin:round;stroke-opacity:1"
         transform="matrix(0.00254,0,0,0.00254,-63.008206,-18.857302)" />
      <path
         d="m 47500,22000 h 1000"
         id="path1218"
         style="fill:#008400;fill-opacity:0;stroke:#008400;stroke-width:60;stroke-linecap:round;stroke-linejoin:round;stroke-opacity:1"
         transform="matrix(0.00254,0,0,0.00254,-63.008206,-18.857302)" />
      <path
         d="M 51500,30500 V 29000"
         id="path1226"
         style="fill:#008400;fill-opacity:0;stroke:#008400;stroke-width:60;stroke-linecap:round;stroke-linejoin:round;stroke-opacity:1"
         transform="matrix(0.00254,0,0,0.00254,-63.008206,-18.857302)" />
      <path
         d="m 43500,22000 h 1000"
         id="path1230"
         style="fill:#008400;fill-opacity:0;stroke:#008400;stroke-width:60;stroke-linecap:round;stroke-linejoin:round;stroke-opacity:1"
         transform="matrix(0.00254,0,0,0.00254,-63.008206,-18.857302)" />
      <path
         d="m 43500,27000 h 1000"
         id="path1234"
         style="fill:#008400;fill-opacity:0;stroke:#008400;stroke-width:60;stroke-linecap:round;stroke-linejoin:round;stroke-opacity:1"
         transform="matrix(0.00254,0,0,0.00254,-63.008206,-18.857302)" />
      <path
         d="M 51500,16000 V 15000"
         id="path1236"
         style="fill:#008400;fill-opacity:0;stroke:#008400;stroke-width:60;stroke-linecap:round;stroke-linejoin:round;stroke-opacity:1"
         transform="matrix(0.00254,0,0,0.00254,-63.008206,-18.857302)" />
      <path
         d="M 48500,27000 H 47500"
         id="path1238"
         style="fill:#008400;fill-opacity:0;stroke:#008400;stroke-width:60;stroke-linecap:round;stroke-linejoin:round;stroke-opacity:1"
         transform="matrix(0.00254,0,0,0.00254,-63.008206,-18.857302)" />
      <path
         d="M 51500,25000 V 24000"
         id="path1242"
         style="fill:#008400;fill-opacity:0;stroke:#008400;stroke-width:60;stroke-linecap:round;stroke-linejoin:round;stroke-opacity:1"
         transform="matrix(0.00254,0,0,0.00254,-63.008206,-18.857302)" />
      <path
         d="m 51500,19000 v 500"
         id="path1244"
         style="fill:#008400;fill-opacity:0;stroke:#008400;stroke-width:60;stroke-linecap:round;stroke-linejoin:round;stroke-opacity:1"
         transform="matrix(0.00254,0,0,0.00254,-63.008206,-18.857302)" />
      <path
         d="m 51500,19500 h 5500"
         id="path1248"
         style="fill:#008400;fill-opacity:0;stroke:#008400;stroke-width:60;stroke-linecap:round;stroke-linejoin:round;stroke-opacity:1"
         transform="matrix(0.00254,0,0,0.00254,-63.008206,-18.857302)" />
      <g
         style="fill:#840000;fill-opacity:0;stroke:#840000;stroke-width:60;stroke-linecap:round;stroke-linejoin:round;stroke-opacity:1"
         id="g1294"
         transform="matrix(0.00254,0,0,0.00254,-63.008207,-18.857302)">
        <text
           x="43190"
           y="22250"
           textLength="490"
           font-size="660px"
           lengthAdjust="spacingAndGlyphs"
           text-anchor="end"
           opacity="0"
           id="text1288">A</text>
        <path
           d="m 42820,22080 h 240"
           id="path1290" />
        <path
           d="m 42770,22220 170,-500 170,500"
           id="path1292" />
      </g>
      <g
         style="fill:#840000;fill-opacity:0;stroke:#840000;stroke-width:100;stroke-linecap:round;stroke-linejoin:round;stroke-opacity:1"
         id="g1298"
         transform="matrix(0.00254,0,0,0.00254,-63.008207,-18.857302)">
        <path
           style="fill:none;fill-opacity:0;stroke:#840000;stroke-width:100;stroke-linecap:round;stroke-linejoin:round;stroke-opacity:1"
           d="m 43500,22000 -250,-440 h -660 v 440 440 h 660 z"
           id="path1296" />
      </g>
      <g
         style="fill:#840000;fill-opacity:0;stroke:#840000;stroke-width:60;stroke-linecap:round;stroke-linejoin:round;stroke-opacity:1"
         id="g1304"
         transform="matrix(0.00254,0,0,0.00254,-63.008207,-18.857302)">
        <text
           x="43190"
           y="27250"
           textLength="560"
           font-size="660px"
           lengthAdjust="spacingAndGlyphs"
           text-anchor="end"
           opacity="0"
           id="text1300">B</text>
        <path
           d="m 42940,26960 70,20 30,30 20,40 v 80 l -20,40 -30,30 -50,20 h -190 v -500 h 170 l 50,30 20,20 30,50 v 40 l -30,50 -20,30 -50,20 h -170"
           id="path1302" />
      </g>
      <g
         style="fill:#840000;fill-opacity:0;stroke:#840000;stroke-width:100;stroke-linecap:round;stroke-linejoin:round;stroke-opacity:1"
         id="g1308"
         transform="matrix(0.00254,0,0,0.00254,-63.008207,-18.857302)">
        <path
           style="fill:none;fill-opacity:0;stroke:#840000;stroke-width:100;stroke-linecap:round;stroke-linejoin:round;stroke-opacity:1"
           d="m 43500,27000 -250,-440 h -730 v 440 440 h 730 z"
           id="path1306" />
      </g>
      <g
         style="fill:#840000;fill-opacity:0;stroke:#840000;stroke-width:60;stroke-linecap:round;stroke-linejoin:round;stroke-opacity:1"
         id="g1338"
         transform="matrix(0.00254,0,0,0.00254,-63.008207,-18.857302)">
        <text
           x="57100"
           y="19750"
           textLength="580"
           font-size="660px"
           lengthAdjust="spacingAndGlyphs"
           text-anchor="start"
           opacity="0"
           id="text1332">Q</text>
        <path
           d="m 57580,19770 -50,-20 -50,-50 -70,-70 -50,-30 h -40"
           id="path1334" />
        <path
           d="m 57340,19720 -50,-20 -50,-50 -20,-100 v -160 l 20,-100 50,-40 50,-30 h 90 l 50,30 50,40 20,100 v 160 l -20,100 -50,50 -50,20 h -90"
           id="path1336" />
      </g>
      <g
         style="fill:#840000;fill-opacity:0;stroke:#840000;stroke-width:100;stroke-linecap:round;stroke-linejoin:round;stroke-opacity:1"
         id="g1342"
         transform="matrix(0.00254,0,0,0.00254,-63.008207,-18.857302)">
        <path
           style="fill:none;fill-opacity:0;stroke:#840000;stroke-width:100;stroke-linecap:round;stroke-linejoin:round;stroke-opacity:1"
           d="m 57000,19500 v 440 h 750 l 250,-440 -250,-440 h -750 z"
           id="path1340" />
      </g>
      <g
         style="fill:#008400;fill-opacity:1;stroke:#008400;stroke-width:100;stroke-linecap:round;stroke-linejoin:round;stroke-opacity:1"
         id="g1522"
         transform="matrix(0.00254,0,0,0.00254,-63.008207,-18.857302)">
        <circle
           cx="51500"
           cy="19500"
           r="200"
           id="circle1520" />
      </g>
    </g>
  </g>
</svg>
