<?xml version="1.0" encoding="UTF-8" standalone="no"?>
<!-- Created with Inkscape (http://www.inkscape.org/) -->
<svg
   xmlns:svg="http://www.w3.org/2000/svg"
   xmlns="http://www.w3.org/2000/svg"
   version="1.0"
   width="200"
   height="75"
   id="svg6065">
  <defs
     id="defs6067" />
  <g
     transform="translate(-191.1839,-656.7011)"
     id="layer1">
    <g
       transform="matrix(1438.57,0,0,1438.57,-654.9591,372.8262)"
       id="g2289">
      <g
         transform="translate(5.167342e-3,4.061066e-3)"
         id="g9631">
        <line
           id="line2117"
           style="font-style:normal;font-variant:normal;font-weight:normal;font-stretch:normal;letter-spacing:normal;word-spacing:normal;text-anchor:start;fill:none;fill-opacity:1;stroke:black;stroke-width:0.00139027;stroke-linecap:square;stroke-linejoin:miter;stroke-miterlimit:10.43299961;stroke-dasharray:none;stroke-dashoffset:0;stroke-opacity:1"
           y2="0.20902535"
           x2="0.6221242"
           y1="0.20902535"
           x1="0.60053849" />
        <line
           id="line2119"
           style="font-style:normal;font-variant:normal;font-weight:normal;font-stretch:normal;letter-spacing:normal;word-spacing:normal;text-anchor:start;fill:none;fill-opacity:1;stroke:black;stroke-width:0.00139027;stroke-linecap:square;stroke-linejoin:miter;stroke-miterlimit:10.43299961;stroke-dasharray:none;stroke-dashoffset:0;stroke-opacity:1"
           y2="0.22965023"
           x2="0.62226117"
           y1="0.22965023"
           x1="0.60042566" />
        <line
           id="line2121"
           style="font-style:normal;font-variant:normal;font-weight:normal;font-stretch:normal;letter-spacing:normal;word-spacing:normal;text-anchor:start;fill:none;fill-opacity:1;stroke:black;stroke-width:0.00139027;stroke-linecap:square;stroke-linejoin:miter;stroke-miterlimit:10.43299961;stroke-dasharray:none;stroke-dashoffset:0;stroke-opacity:1"
           y2="0.21934652"
           x2="0.7037428"
           y1="0.21934652"
           x1="0.67548662" />
        <path
           d="M 0.61775626,0.19872161 L 0.62004791,0.20387782 C 0.62157568,0.2073153 0.62253054,0.21017987 0.62291248,0.21247152 C 0.62329442,0.21476317 0.62346803,0.21705482 0.62346803,0.21934647 C 0.62346803,0.22162076 0.62329442,0.22391242 0.62291248,0.22620407 C 0.62253054,0.22849572 0.62157568,0.23136029 0.62004791,0.23479776 C 0.61852015,0.23823524 0.61775626,0.23995398 0.61775626,0.23995398 C 0.61775626,0.23995398 0.62004791,0.23995398 0.62463122,0.23995398 C 0.62921452,0.23995398 0.632652,0.23995398 0.63494365,0.23995398 C 0.63721794,0.23995398 0.64013459,0.23976301 0.64367624,0.23938107 C 0.64720052,0.23899913 0.65082897,0.23804427 0.65456158,0.2365165 C 0.65827684,0.23498874 0.66166223,0.23309639 0.66471777,0.23080473 C 0.6677733,0.22851308 0.67025593,0.22603046 0.67216564,0.22335686 C 0.67407535,0.22068327 0.6750302,0.21934647 0.6750302,0.21934647 C 0.6750302,0.21934647 0.67407535,0.21800968 0.67216564,0.21533608 C 0.67025593,0.21266249 0.6677733,0.21017987 0.66471777,0.20788821 C 0.66166223,0.20561392 0.65827684,0.20368685 0.65456158,0.20217645 C 0.65082897,0.20064868 0.64720052,0.19969382 0.64367624,0.19931188 C 0.64015195,0.19892994 0.63723531,0.19873897 0.63494365,0.19873897 C 0.632652,0.19873897 0.62921452,0.19873897 0.62463122,0.19873897 L 0.61775626,0.19872161 z "
           style="font-style:normal;font-variant:normal;font-weight:normal;font-stretch:normal;letter-spacing:normal;word-spacing:normal;text-anchor:start;fill:white;fill-opacity:1;stroke:black;stroke-width:0.00278054;stroke-linecap:square;stroke-linejoin:miter;stroke-miterlimit:10.43299961;stroke-dasharray:none;stroke-dashoffset:0;stroke-opacity:1"
           id="path2131" />
      </g>
      <text
         x="0.59328967"
         y="0.21764722"
         style="font-size:0.00834162px;font-style:normal;font-weight:normal;fill:black;fill-opacity:1;stroke:none;stroke-width:1px;stroke-linecap:butt;stroke-linejoin:miter;stroke-opacity:1;font-family:Bitstream Vera Sans"
         id="text2443"
         xml:space="preserve"><tspan
           x="0.59328967"
           y="0.21764722"
           style="font-size:0.01251243px;font-weight:bold"
           id="tspan2445">A</tspan></text>
      <text
         x="0.59322858"
         y="0.2382721"
         style="font-size:0.00834162px;font-style:normal;font-weight:normal;fill:black;fill-opacity:1;stroke:none;stroke-width:1px;stroke-linecap:butt;stroke-linejoin:miter;stroke-opacity:1;font-family:Bitstream Vera Sans"
         id="text2447"
         xml:space="preserve"><tspan
           x="0.59322858"
           y="0.2382721"
           style="font-size:0.01251243px;font-weight:bold"
           id="tspan2449">B</tspan></text>
      <text
         x="0.71203554"
         y="0.22713749"
         style="font-size:0.00834162px;font-style:normal;font-weight:normal;fill:black;fill-opacity:1;stroke:none;stroke-width:1px;stroke-linecap:butt;stroke-linejoin:miter;stroke-opacity:1;font-family:Bitstream Vera Sans"
         id="text2451"
         xml:space="preserve"><tspan
           x="0.71203554"
           y="0.22713749"
           style="font-size:0.01251243px;font-weight:bold"
           id="tspan2453">Q</tspan></text>
    </g>
  </g>
</svg>
